inDegrees=no
num_controls=7
num_derivatives=13
num_iterations=104
num_multipliers=7
num_parameters=0
num_slacks=7
num_states=26
objective=0.453015
objective_accelerations=0.048568
objective_balance=0.001059
objective_effort=0.037620
objective_height=0.360146
objective_ligament=0.005622
solver_duration=1187.353816
status=Solve_Succeeded
success=true
DataType=double
version=3
OpenSimVersion=4.5
endheader
time	/jointset/ground_pelvis/pelvis_tilt/value	/jointset/ground_pelvis/pelvis_tx/value	/jointset/ground_pelvis/pelvis_ty/value	/jointset/hip_r/hip_flexion_r/value	/jointset/hip_r/hip_adduction_r/value	/jointset/hip_r/hip_rotation_r/value	/jointset/back/lumbar_extension/value	/jointset/patellofemoral_r/patellar_flexion_r/value	/jointset/knee_r/knee_flexion_r/value	/jointset/knee_r/knee_adduction_r/value	/jointset/knee_r/knee_rotation_r/value	/jointset/ankle_r/ankle_angle_r/value	/jointset/subtalar_r/subtalar_angle_r/value	/jointset/ground_pelvis/pelvis_tilt/speed	/jointset/ground_pelvis/pelvis_tx/speed	/jointset/ground_pelvis/pelvis_ty/speed	/jointset/hip_r/hip_flexion_r/speed	/jointset/hip_r/hip_adduction_r/speed	/jointset/hip_r/hip_rotation_r/speed	/jointset/back/lumbar_extension/speed	/jointset/patellofemoral_r/patellar_flexion_r/speed	/jointset/knee_r/knee_flexion_r/speed	/jointset/knee_r/knee_adduction_r/speed	/jointset/knee_r/knee_rotation_r/speed	/jointset/ankle_r/ankle_angle_r/speed	/jointset/subtalar_r/subtalar_angle_r/speed	/forceset/tau_hip_flexion_r	/forceset/tau_hip_adduction_r	/forceset/tau_hip_rotation_r	/forceset/tau_knee_flexion_r	/forceset/tau_ankle_angle_r	/forceset/tau_subtalar_angle_r	/forceset/tau_lumbar_extension	lambda_cid13_p0	lambda_cid14_p0	lambda_cid14_p1	lambda_cid14_p2	lambda_cid14_p3	lambda_cid14_p4	lambda_cid14_p5	/jointset/ground_pelvis/pelvis_tilt/accel	/jointset/ground_pelvis/pelvis_tx/accel	/jointset/ground_pelvis/pelvis_ty/accel	/jointset/hip_r/hip_flexion_r/accel	/jointset/hip_r/hip_adduction_r/accel	/jointset/hip_r/hip_rotation_r/accel	/jointset/back/lumbar_extension/accel	/jointset/patellofemoral_r/patellar_flexion_r/accel	/jointset/knee_r/knee_flexion_r/accel	/jointset/knee_r/knee_adduction_r/accel	/jointset/knee_r/knee_rotation_r/accel	/jointset/ankle_r/ankle_angle_r/accel	/jointset/subtalar_r/subtalar_angle_r/accel	gamma_cid13_p0	gamma_cid14_p0	gamma_cid14_p1	gamma_cid14_p2	gamma_cid14_p3	gamma_cid14_p4	gamma_cid14_p5
0	0.001831064383416163	0.1269717890836006	0.9345786087394264	0.1934211968871041	-0.2131513399413472	-0.2376382529432094	-0.2903787966825928	0.231178627336342	0.2311786273363406	0.1002993020828209	0.1603232064326284	0.089344008118978	0.0824631587593465	0	0	0	0	0	0	0	0	0	0	0	0	0	0.1069751303205949	-0.02370611355459351	0.0008824739643870865	-0.2349938044944816	0.1166167456578648	-0.08171257837025361	-0.02780323074605601	-29.4506446167071	-8.836036616899573	-33.3250802531039	1.497357759455165	5.157516443771673	-608.5135713961482	33.70839177365314	-1.738209985905883	-1.899484282347556	-0.868267405387025	9.981633221068964	0.1404331176862558	1.72570617597253	-6.4173988963557	10.35682146231375	10.35682146231376	-3.040140674472033	0.6474587356237442	2.843127062624528	1.022850121074544	4.946614235241807e-08	3.102576400099125e-08	-3.400924649380534e-07	4.198966814349287e-07	8.164814387205883e-09	2.197010282183471e-07	-4.293033083305872e-07
0.01	0.001749313107294279	0.1268789789762739	0.934536314038302	0.1939065073973546	-0.2131442298496641	-0.2375511106258726	-0.2906996971779406	0.2316864525570675	0.2316864525570662	0.1001500057604903	0.1603522712135094	0.08948431654354527	0.08251383031023773	-0.01638165088362152	-0.01836983711433483	-0.008446366528339491	0.09656783356004489	0.001254007746836906	0.01746502153134168	-0.06360747006885382	0.1011010197344338	0.1011010197344341	-0.02935743212140551	0.005749639968703914	0.02800990936096186	0.009910639824510587	0.1056551500502236	-0.03927060654804834	0.00100954860707744	-0.2380284883159968	0.1193867826823387	-0.07028421776069355	-0.02563144845955295	-29.45693983928317	-7.300046829122584	-28.00132851095873	0.544120401923348	2.293232377916055	-610.1760650937144	45.20554591657205	-1.592855392879863	-1.776904140442195	-0.8308912818648456	9.420218036240392	0.09270399883884892	1.762462898299076	-6.246526711990149	9.917128674199704	9.917128674199756	-2.808283701271403	0.5292981268062785	2.772160739198489	0.9416168530151834	4.462239888486149e-08	7.541148380241926e-09	-3.227262974475458e-07	2.784026114793331e-07	2.65972912896916e-08	4.245845189897091e-08	-3.183837029694291e-07
0.02	0.001502802771676919	0.1266082363549107	0.9344099416708326	0.195342668165758	-0.2131296158013811	-0.2372882055419055	-0.2916394935039452	0.2331913652641756	0.2331913652641754	0.09972218727288643	0.1604369486939399	0.08990317163499544	0.08265689744734925	-0.03295181189882219	-0.03558650280731675	-0.01681553326897221	0.190170051630815	0.001500791319930818	0.03515255332604669	-0.1237791661313006	0.1994174972765286	0.1994174972765292	-0.0557044330546741	0.01112253990991087	0.05570933337658295	0.01847911724405546	0.1043351697798512	-0.0548350995415031	0.001136623249766563	-0.241063172137512	0.1221568197068132	-0.05885585715113312	-0.02345966617305095	-29.47535892403127	-5.683900712600238	-22.67912712187372	-0.3910671073506027	-0.5493764193441686	-610.5602481826286	56.43694649347584	-1.775912012221686	-1.668849998077	-0.8528274478456704	9.388510123214003	-0.061011717062345	1.770208228645198	-5.730244095074282	9.799913023845978	9.799913023845955	-2.438054436844647	0.5721107301243571	2.781029993556342	0.7544176400813903	3.977865541730492e-08	-1.594346724050739e-08	-3.053601299570381e-07	1.369085415237374e-07	4.502976819217732e-08	-1.347841244204053e-07	-2.07464097608271e-07
0.03	0.00109078660907289	0.1261698380871267	0.9342001496837929	0.197700816063554	-0.2131155628261655	-0.2368502122588237	-0.2931658661047568	0.2356655639304262	0.2356655639304271	0.09904138538358351	0.1605749075245204	0.09059652533666428	0.08288121484880459	-0.04933168841775282	-0.05202574479014892	-0.02513418124950918	0.2810034236467092	0.001374496933318314	0.05225372350720928	-0.1811671121193864	0.2949472717151408	0.2949472717151402	-0.0804709120431442	0.016468733468184	0.08282359335048779	0.02642943851377619	0.09884072591123112	-0.05253282253442325	0.001390966159403551	-0.2353128652519727	0.1143105246436727	-0.0569187879093873	-0.01897557405269457	-29.50514884785407	-8.097201667910671	-22.12992030682965	-0.6276756994598192	0.6100523821088264	-610.9578796698536	56.61002087483705	-1.551062124737422	-1.621341324130913	-0.820108712691244	8.862335715735298	0.02125065730860765	1.651246111455938	-5.69383356388116	9.358257078937658	9.358257078937509	-2.498224073578148	0.5158285724378443	2.655956970266238	0.8220692813824122	4.513823412239777e-08	-2.525546018631248e-08	-3.175290456918777e-07	1.788041324112982e-07	5.519275737766038e-08	-2.259813116086602e-07	-2.421207597359592e-07
